<svg width="256px" height="256px" viewBox="-14.4 -14.4 76.80 76.80" xmlns="http://www.w3.org/2000/svg" fill="#000000" transform="matrix(-1, 0, 0, 1, 0, 0)rotate(0)" stroke="#000000" stroke-width="0.72"><g id="SVGRepo_bgCarrier" stroke-width="0"></g><g id="SVGRepo_tracerCarrier" stroke-linecap="round" stroke-linejoin="round" stroke="#CCCCCC" stroke-width="0.096"></g><g id="SVGRepo_iconCarrier"><defs><style>.a{fill:none;stroke:#ff0000;stroke-linecap:round;stroke-linejoin:round;}</style></defs><path class="a" d="M22.3627,25.5651,3.5,27.7637C8.1888,37.8726,18.9841,46.009,32.3425,43.5293c10.7757-2,12.9416-14.8956,6.8612-24.0677C34.1277,11.8046,27.071,7.281,16.577,7.0728c-5.42-.1075-10.069,1.9071-12.7759,6.84Z"></path><path class="a" d="M42.787,34.4444c2.9838-5.1464,1.8467-12.6941-1.6906-18.03C36.02,8.7573,28.9637,4.2338,18.47,4.0255c-5.42-.1075-10.069,1.9071-12.7759,6.84"></path><line class="a" x1="3.5" y1="27.7637" x2="5.3927" y2="24.7165"></line><line class="a" x1="3.8011" y1="13.9124" x2="5.6938" y2="10.8652"></line><path class="a" d="M18.5652,23.1811,5.3927,24.7165"></path><line class="a" x1="40.4688" y1="38.0715" x2="42.787" y2="34.4444"></line></g></svg>