<svg height="200px" width="200px" version="1.1" id="Layer_1" xmlns="http://www.w3.org/2000/svg" xmlns:xlink="http://www.w3.org/1999/xlink" viewBox="0 0 512.001 512.001" xml:space="preserve" fill="#000000">
	<g id="SVGRepo_bgCarrier" stroke-width="0">
	</g>
	<g id="SVGRepo_tracerCarrier" stroke-linecap="round" stroke-linejoin="round">
	</g>
	<g id="SVGRepo_iconCarrier">
		<path style="fill:#C3DFF7;" d="M440.535,393.095l21.122-12.275c5.619-3.264,7.182-12.539,3.288-23.285 c-3.339-9.195-9.787-17.063-16.469-20.921c-2.957-1.707-5.958-2.629-8.758-2.535l-14.383,0.48l36.524-21.226 c1.25-0.726,2.341-1.774,3.218-3.157c4.853-7.683,1.45-22.65-7.643-33.475l-16.139-19.216l23.849-13.86 c5.793-3.367,7.248-13.098,2.984-24.142c-3.439-8.879-9.709-16.353-16.159-20.076c-3.167-1.829-6.377-2.752-9.316-2.495 l-28.497,2.434l1.073-31.629c0.391-11.646-7.641-26.228-18.724-33.056c-5.103-2.947-9.759-3.219-13.135-1.258l-71.545,41.578 l0.09-31.785l47.106-27.375c5.973-3.471,7.285-13.663,2.643-24.974c-3.526-8.562-9.601-15.651-15.82-19.242 c-3.379-1.951-6.8-2.869-9.881-2.43l-23.848,3.345l0.108-37.738c0.033-11.853-8.289-26.268-18.604-32.223 c-5.182-2.992-9.884-3.271-13.281-1.297L250,18.893c-2.79-3.346-5.802-5.969-8.797-7.698c-4.906-2.833-9.73-3.39-13.3-1.315 L200.79,25.637c-3.129-4.277-6.961-7.981-11.236-10.441c-4.944-2.656-9.377-2.82-12.616-0.938L148.886,30.56l-4.889-6.076 c-2.935-3.649-6.143-6.43-9.309-8.259c-4.915-2.838-9.733-3.381-13.286-1.317L47.465,57.875c0.033-0.019,0.07-0.03,0.103-0.049 c-1.149,0.648-2.174,1.557-3.026,2.754c-5.187,7.284-2.165,22.16,6.749,33.242L71.48,118.91l-21.127,12.278c0.001,0,0.001,0,0.001,0 c-5.62,3.264-7.194,12.534-3.282,23.309c3.328,9.168,9.791,17.036,16.467,20.89c2.947,1.701,5.941,2.633,8.759,2.539l14.419-0.485 l-36.54,21.235c0.503-0.293,1.038-0.518,1.588-0.707c-1.928,0.661-3.588,1.937-4.828,3.886c-4.875,7.645-1.45,22.624,7.643,33.449 l16.134,19.211l-23.862,13.867c0.095-0.055,0.209-0.081,0.306-0.134c-6.037,3.211-7.623,13.066-3.272,24.275 c3.441,8.899,9.703,16.37,16.156,20.095c3.17,1.831,6.366,2.724,9.319,2.476l28.497-2.435l-1.073,31.629 c-0.391,11.647,7.641,26.228,18.602,32.993c5.236,3.023,9.995,3.248,13.41,1.167c-0.052,0.032-0.092,0.087-0.145,0.118l71.515-41.56 l-0.09,31.808l-47.103,27.373c0.059-0.034,0.127-0.052,0.187-0.085c-6.127,3.374-7.515,13.653-2.811,25.056 c3.526,8.562,9.591,15.647,15.811,19.237c3.379,1.951,6.802,2.87,9.89,2.437l23.826-3.358l-0.107,37.738 c-0.033,11.853,8.311,26.281,18.604,32.224c5.521,3.188,10.472,3.276,13.901,0.875c-0.206,0.144-0.401,0.304-0.618,0.43 l30.351-17.637c2.783,3.343,5.814,5.977,8.809,7.706c5.267,3.041,10.413,3.432,14.039,0.79c-0.248,0.18-0.484,0.381-0.745,0.534 l27.118-15.76c3.134,4.281,6.965,7.982,11.213,10.424c5.055,2.717,9.566,2.822,12.824,0.818c-0.064,0.039-0.119,0.091-0.183,0.129 l28.047-16.299l4.891,6.078c2.92,3.638,6.132,6.444,9.302,8.275c5.395,3.115,10.649,3.421,14.267,0.587 c-0.323,0.253-0.636,0.527-0.984,0.728l73.937-42.967c1.114-0.647,2.103-1.551,2.934-2.72c5.164-7.272,2.142-22.172-6.749-33.242 L440.535,393.095z">
		</path>
		<path style="fill:#D2E7F8;" d="M219.687,45.524c10.314,5.955,18.637,20.371,18.604,32.223l-0.107,37.738l23.848-3.345 c3.079-0.439,6.502,0.48,9.881,2.432c6.219,3.591,12.295,10.68,15.82,19.242c5.419,13.202,2.725,24.88-6.023,26.125l-43.67,6.137 l-0.241,85.045l64.219-5.528l1.976-57.961c0.381-11.329,8.629-15.748,18.579-10.003c11.084,6.829,19.115,21.411,18.724,33.056 l-1.073,31.629l28.497-2.434c2.939-0.258,6.149,0.666,9.317,2.495c6.449,3.723,12.719,11.197,16.158,20.076 c5.105,13.227,2.01,24.57-6.915,25.353l-28.497,2.435l24.717,29.431c9.093,10.826,12.495,25.792,7.643,33.475 c-3.37,5.301-9.856,5.694-16.532,1.839c-2.97-1.715-5.959-4.237-8.745-7.567l-45.288-53.899l-64.219,5.528l63.978,79.517 l45.445-1.514c2.799-0.094,5.8,0.828,8.758,2.535c6.681,3.858,13.131,11.725,16.469,20.921c4.793,13.226,1.318,24.221-7.807,24.53 l-24.802,0.841l28.39,35.278c8.891,11.069,11.913,25.971,6.749,33.242c-3.481,4.903-9.765,5.13-16.217,1.404 c-3.17-1.831-6.382-4.635-9.302-8.274l-28.391-35.278l0.891,32.764c0.324,12.059-7.764,17.333-18.08,11.789 c-10.672-6.136-18.929-20.051-19.231-31.815l-1.642-60.05l-63.978-79.517l-0.241,85.019l43.492,56.46 c8.712,11.326,11.331,26.097,5.855,32.983c-3.568,4.467-9.651,4.527-15.88,0.93c-3.371-1.947-6.807-4.983-9.859-8.956 l-23.751-30.826l-0.107,37.738c-0.033,11.853-8.411,16.626-18.725,10.671c-10.293-5.943-18.637-20.371-18.604-32.224l0.107-37.738 l-23.826,3.358c-3.088,0.434-6.511-0.486-9.89-2.437c-6.219-3.59-12.284-10.674-15.811-19.237 c-5.442-13.189-2.747-24.893,6.023-26.125l43.648-6.15l0.241-85.02l-64.197,5.515l-1.976,57.961 c-0.39,11.364-8.699,15.715-18.701,9.94c-10.961-6.765-18.993-21.347-18.602-32.993l1.073-31.629l-28.497,2.434 c-2.953,0.249-6.148-0.646-9.319-2.476c-6.452-3.725-12.715-11.195-16.156-20.094c-5.129-13.214-2.032-24.583,6.915-25.353 l28.497-2.434l-24.717-29.431c-9.093-10.826-12.517-25.806-7.643-33.449c3.379-5.318,9.852-5.725,16.534-1.866 c2.956,1.706,5.954,4.249,8.743,7.568l45.288,53.899l64.197-5.515L117.722,176.4l-45.423,1.528 c-2.818,0.095-5.812-0.837-8.759-2.538c-6.676-3.854-13.139-11.723-16.467-20.891c-4.815-13.264-1.318-24.248,7.807-24.556 l24.802-0.841L51.292,93.824c-8.913-11.083-11.935-25.958-6.749-33.242c3.479-4.886,9.76-5.113,16.209-1.389 c3.166,1.829,6.374,4.609,9.309,8.259l28.391,35.278l-0.891-32.764c-0.324-12.058,7.765-17.333,18.058-11.801 c10.761,6.191,18.938,20.125,19.254,31.827l1.642,60.05l63.956,79.529l0.241-85.045l-43.47-56.447 c-8.735-11.339-11.353-26.085-5.855-32.983c3.565-4.457,9.657-4.527,15.882-0.933c3.374,1.948,6.787,4.973,9.857,8.958 l23.729,30.814l0.107-37.738C200.994,44.342,209.394,39.581,219.687,45.524z">
		</path>
	</g>
</svg>
