<svg xmlns="http://www.w3.org/2000/svg" xmlns:xlink="http://www.w3.org/1999/xlink" version="1.1" x="0px" y="0px" viewBox="0 0 100 125" enable-background="new 0 0 100 100" xml:space="preserve"><path d="M94.999,23.849C94.991,13.556,86.385,5,76.102,5h-0.002c-0.004,0-0.008,0-0.012,0H42.671c-4.995,0-9.833,2.002-13.368,5.531  l-18.773,18.9C7.003,32.95,5,37.782,5,42.764v33.372C5,86.44,13.603,95,23.897,95h33.432c4.995,0,9.833-2.002,13.368-5.53  l18.773-18.9C92.996,67.05,95,62.217,95,57.236V23.864C95,23.859,95,23.854,94.999,23.849  C94.995,18.816,94.999,23.852,94.999,23.849z M91.359,23.157l-15.555,15.66c-1.531-7.21-7.347-12.994-14.558-14.504L76.819,8.635  C84.608,8.993,91.004,15.362,91.359,23.157z M58.901,57.225c-0.707-0.7-1.85-0.696-2.55,0.011L41.257,72.431  c-7.76-0.706-13.877-7.407-13.877-15.195v-1.875l13.5-13.592c1.638-1.65-0.925-4.182-2.561-2.535L27.38,50.248V27.5h29.949  c8.325,0,15.291,6.931,15.291,15.264V72.5H46.267l12.644-12.73C59.613,59.064,59.608,57.924,58.901,57.225  C58.194,56.524,59.608,57.924,58.901,57.225z M71.775,8.6L56.578,23.9H27.38v-0.036c0-4.077,1.59-7.91,4.478-10.792l0.001-0.001  c2.887-2.882,6.727-4.47,10.811-4.47H71.775z M23.773,23.864v0.043c-0.994,0.006-1.972,0.104-2.935,0.259l3.178-3.2  C23.87,21.918,23.773,22.882,23.773,23.864z M8.606,42.764c0-8.288,6.89-15.192,15.167-15.258v26.373l-4.228,4.257  c-1.634,1.645,0.921,4.187,2.561,2.535l1.748-1.76c0.334,3.813,1.8,7.391,4.245,10.336L11.887,85.568  c-2.121-2.68-3.281-5.965-3.281-9.432V42.764z M23.897,91.4c-3.479,0-6.774-1.161-9.461-3.284l16.215-16.325  c2.206,1.822,4.77,3.082,7.516,3.75l-0.59,0.594c-1.634,1.645,0.921,4.187,2.561,2.535l2.553-2.57H72.62v0.036  c0,4.077-1.59,7.91-4.478,10.793l-0.001,0.001c-2.889,2.882-6.728,4.47-10.813,4.47H23.897z M76.227,76.136v-0.042  c0.995-0.006,1.973-0.104,2.937-0.26l-3.18,3.201C76.13,78.083,76.227,77.118,76.227,76.136z M86.916,68.03  c-2.859,2.853-6.651,4.432-10.689,4.464v-28.99l15.167-15.269v29.001C91.394,61.313,89.803,65.146,86.916,68.03  C84.056,70.883,89.803,65.146,86.916,68.03z"/><text x="0" y="115" fill="#000000" font-size="5px" font-weight="bold" font-family="'Helvetica Neue', Helvetica, Arial-Unicode, Arial, Sans-serif">Created by Christine Komatsu</text><text x="0" y="120" fill="#000000" font-size="5px" font-weight="bold" font-family="'Helvetica Neue', Helvetica, Arial-Unicode, Arial, Sans-serif">from the Noun Project</text></svg>